# xmcd
#
# Track frame offsets:
#	150
#	16016
#	28129
#	46690
#	62957
#	76715
#	87053
#	105428
#	120945
#	138047
#	152612
#	168804
#	185821
#	200140
#	214428
#	231500
#	248640
#	262304
#	280492
#
# Disc length: 3925 seconds
# Revision: 0
# Processed by: cddbd v1.5.2PL0 Copyright (c) Steve Scherf et al.
# Submitted via: dBpowerAMP V12.0
#
DISCID=020f5313
DTITLE=Various Artist - Country Radio February 2008
DYEAR=2008
DGENRE=Country
TTITLE0=Carrie Underwood - All American Girl
TTITLE1=Garth Brooks and Huey Lewis - Workin For A Livin
TTITLE2=Sara Evans - Some Things Never Change
TTITLE3=Cole Deggs and The Lonesome - Girl Next Door
TTITLE4=Trisha Yearwood - This Is Me Your Talking To
TTITLE5=Gord Bamford - Stayed Til Two
TTITLE6=Paul Brandt - That's Worth Fighting For
TTITLE7=Billy Ray Cyrus Feat Miley Cyrus - Ready Set Don't Go
TTITLE8=Star De Azlan - She's Pretty
TTITLE9=Rockie Lynne - I Can't Believe It's Me
TTITLE10=Rio Grand - The Storm Inside Of Me
TTITLE11=Lila McCann - That's What Angels Do
TTITLE12=Townsend O'Donnell - Cowboys Want It Cowgirls Got It
TTITLE13=Prairie Oyster - Open Up Your Heart
TTITLE14=Gil Grand - Good Days Bad Days
TTITLE15=Clay Walker - She Likes It In The Morning
TTITLE16=Miranda Lambert - Gunpowder and Lead
TTITLE17=Katie Armiger - Make Me Believe
TTITLE18=AmMber Nicholson - Hold Me Back
EXTD=
EXTT0=
EXTT1=
EXTT2=
EXTT3=
EXTT4=
EXTT5=
EXTT6=
EXTT7=
EXTT8=
EXTT9=
EXTT10=
EXTT11=
EXTT12=
EXTT13=
EXTT14=
EXTT15=
EXTT16=
EXTT17=
EXTT18=
PLAYORDER=
